<svg width="336" height="119" viewBox="0 0 336 119" fill="none" xmlns="http://www.w3.org/2000/svg">
<g clip-path="url(#clip0_81_11908)">
<path d="M21.1253 118.871L34.4262 70.5307H0.000488281L19.9517 0.00216675H245.675L232.374 47.5495H336.434L316.874 118.871H21.1253Z" fill="black"/>
<path d="M97.8675 25.5832L95.112 34.6432H81.3341L84.0897 25.5832H97.8675ZM75.4293 56.3082L78.5785 44.8848H93.5373C101.41 44.8848 106.134 41.3396 108.496 33.8553L109.677 29.5223C112.433 20.0685 108.102 13.7659 97.8675 13.7659H33.3085L21.1052 55.9143H75.4293V56.3082Z" fill="#F8FF13"/>
<path d="M132.897 25.2961H138.014V38.8141H125.418L132.897 25.2961ZM115.577 56.3082L119.513 49.1516H138.014V56.3082H150.216V13.7659H126.598L101.8 56.3082H115.577Z" fill="#F8FF13"/>
<path d="M174.294 25.2961H187.893L185.493 34.4407H171.495L174.294 25.2961ZM199.09 33.6455L200.289 29.6696C203.09 19.7297 198.69 13.7659 188.292 13.7659H165.097L152.699 56.3082H165.497L168.696 44.7781H176.694L180.294 56.3082H193.491L189.492 43.9829C194.291 42.3926 197.49 39.2118 199.09 33.6455Z" fill="#F8FF13"/>
<path d="M211.245 56.3082L223.462 13.7659H210.851L198.633 56.3082H211.245Z" fill="#F8FF13"/>
<path d="M131.742 62.5645L117.31 79.6609L111.85 62.5645H57.6351L45.9341 105.107H99.7589L106.389 81.6489L110.68 94.7694H118.48L130.182 80.8537L123.55 105.107H136.032L147.733 62.5645H131.742Z" fill="#F8FF13"/>
<path d="M164.953 87.6128L172.372 74.0947H177.448V87.6128H164.953ZM166.125 62.5645L141.526 105.107H155.583L159.488 97.9501H177.839V105.107H189.942V62.5645H166.125Z" fill="#F8FF13"/>
<path d="M229.06 74.8898L232.152 62.5645H194.662L191.184 74.8898H204.711L196.595 105.107H208.962L217.078 74.8898H229.06Z" fill="#F8FF13"/>
<path d="M245.797 74.8898H264.685L268.154 62.5645H248.11C240.402 62.5645 235.775 66.1428 233.463 73.697L229.223 89.2032C226.525 99.1429 230.765 105.107 240.786 105.107H256.205L259.674 92.7815H240.786L245.797 74.8898Z" fill="#F8FF13"/>
<path d="M301.655 62.5645L297.38 78.0706H283.393L287.666 62.5645H275.233L263.188 105.107H275.621L279.896 89.9983H294.272L289.998 105.107H302.431L314.087 62.5645H301.655Z" fill="#F8FF13"/>
</g>
<defs>
<clipPath id="clip0_81_11908">
<rect width="336" height="119" fill="white" transform="translate(0.000488281 0.00216675)"/>
</clipPath>
</defs>
</svg>
